<svg id="svg" version="1.1" xmlns="http://www.w3.org/2000/svg" xmlns:xlink="http://www.w3.org/1999/xlink" width="400" height="364.078431372549" viewBox="0, 0, 400,364.078431372549"><g id="svgg"><path id="path0" d="M193.500 4.342 C 189.048 4.510,183.283 4.969,176.750 5.675 C 174.689 5.897,169.314 6.806,165.565 7.565 C 164.017 7.879,162.412 8.182,162.000 8.239 C 161.290 8.338,156.683 9.487,153.417 10.379 C 152.592 10.605,151.654 10.837,151.333 10.895 C 150.794 10.993,144.555 12.967,141.667 13.953 C 139.962 14.536,136.649 15.799,136.294 16.001 C 136.135 16.092,135.872 16.168,135.711 16.169 C 135.549 16.170,134.292 16.664,132.917 17.265 C 131.542 17.867,130.004 18.509,129.500 18.692 C 127.407 19.452,117.034 24.535,114.711 25.938 C 114.048 26.339,113.411 26.670,113.295 26.674 C 113.178 26.678,112.258 27.204,111.250 27.843 C 110.242 28.482,109.154 29.123,108.833 29.267 C 108.047 29.620,101.888 33.592,101.000 34.318 C 100.771 34.506,100.494 34.661,100.385 34.663 C 100.276 34.665,99.713 35.027,99.135 35.467 C 98.557 35.908,97.408 36.729,96.583 37.292 C 95.758 37.855,94.614 38.695,94.041 39.158 C 93.467 39.621,92.953 40.000,92.898 40.000 C 92.764 40.000,91.580 40.919,90.727 41.686 C 90.348 42.026,89.748 42.489,89.394 42.714 C 89.040 42.939,88.563 43.307,88.333 43.533 C 88.104 43.759,87.467 44.305,86.917 44.747 C 79.405 50.781,70.312 59.781,63.841 67.585 C 63.158 68.409,62.509 69.139,62.400 69.207 C 62.290 69.275,61.938 69.725,61.617 70.207 C 61.295 70.689,60.722 71.418,60.342 71.828 C 59.962 72.237,59.387 72.970,59.064 73.456 C 58.741 73.943,58.314 74.517,58.114 74.733 C 57.913 74.949,57.304 75.754,56.758 76.521 C 56.213 77.289,55.257 78.603,54.633 79.443 C 54.010 80.282,53.500 81.032,53.499 81.109 C 53.499 81.187,53.185 81.662,52.801 82.167 C 52.418 82.671,51.457 84.096,50.667 85.333 C 49.877 86.571,49.027 87.889,48.778 88.264 C 48.530 88.638,48.159 89.252,47.955 89.629 C 47.750 90.006,47.134 91.050,46.585 91.949 C 46.036 92.848,45.461 93.857,45.308 94.193 C 45.156 94.528,44.748 95.240,44.404 95.776 C 43.603 97.020,38.184 107.842,37.523 109.516 C 37.249 110.212,36.800 111.262,36.526 111.849 C 35.456 114.143,34.977 115.274,34.838 115.833 C 34.757 116.154,34.343 117.242,33.917 118.250 C 33.490 119.258,32.778 121.171,32.333 122.500 C 31.889 123.829,31.106 126.143,30.593 127.642 C 30.081 129.141,29.560 130.828,29.435 131.392 C 29.311 131.955,28.741 134.025,28.170 135.992 C 27.599 137.958,26.994 140.321,26.826 141.242 C 26.657 142.163,26.288 143.926,26.005 145.159 C 25.268 148.367,24.341 153.345,24.172 155.000 C 24.093 155.779,23.800 158.179,23.522 160.333 C 21.607 175.150,21.717 191.657,23.827 206.250 C 23.999 207.442,24.184 208.904,24.238 209.500 C 24.386 211.124,25.474 216.774,26.346 220.447 C 26.525 221.197,26.780 222.435,26.914 223.197 C 27.049 223.960,27.568 226.008,28.069 227.750 C 28.569 229.492,29.100 231.367,29.248 231.917 C 29.397 232.467,29.630 233.329,29.767 233.833 C 29.903 234.338,30.502 236.175,31.097 237.917 C 31.691 239.658,32.337 241.571,32.530 242.167 C 32.723 242.762,33.321 244.320,33.857 245.627 C 34.394 246.935,34.833 248.079,34.833 248.170 C 34.833 248.358,36.001 251.102,36.902 253.031 C 37.231 253.735,37.500 254.392,37.500 254.490 C 37.500 254.679,39.650 259.210,40.944 261.750 C 43.249 266.272,44.079 267.833,44.587 268.599 C 44.897 269.067,45.244 269.667,45.359 269.933 C 45.636 270.576,47.116 273.083,47.701 273.900 C 47.957 274.258,48.167 274.639,48.167 274.747 C 48.167 274.856,48.451 275.351,48.799 275.847 C 49.146 276.344,50.059 277.753,50.826 278.978 C 51.594 280.204,52.433 281.438,52.691 281.721 C 52.950 282.003,53.278 282.482,53.422 282.785 C 53.565 283.087,54.040 283.803,54.476 284.376 C 54.912 284.948,55.823 286.202,56.501 287.161 C 57.179 288.121,57.981 289.180,58.283 289.515 C 58.586 289.850,58.833 290.181,58.833 290.252 C 58.833 290.322,59.265 290.899,59.792 291.534 C 60.319 292.169,61.087 293.129,61.500 293.667 C 61.913 294.205,62.725 295.194,63.306 295.864 C 63.887 296.535,64.712 297.494,65.140 297.996 C 70.330 304.089,77.872 311.622,84.250 317.083 C 84.892 317.632,85.492 318.161,85.583 318.258 C 85.675 318.355,86.162 318.747,86.667 319.128 C 87.171 319.509,87.883 320.094,88.250 320.429 C 88.617 320.763,89.206 321.222,89.561 321.449 C 89.915 321.676,90.515 322.140,90.894 322.481 C 91.569 323.088,92.648 323.918,93.191 324.250 C 93.341 324.342,93.903 324.760,94.440 325.180 C 94.977 325.600,96.167 326.460,97.083 327.090 C 98.000 327.721,98.938 328.410,99.167 328.622 C 99.396 328.834,99.907 329.165,100.303 329.358 C 100.699 329.550,101.224 329.874,101.470 330.077 C 102.041 330.548,104.453 332.167,104.585 332.167 C 104.640 332.167,105.525 332.721,106.551 333.398 C 107.577 334.075,108.679 334.751,109.000 334.900 C 109.321 335.049,110.183 335.544,110.917 336.001 C 111.650 336.458,112.775 337.096,113.417 337.419 C 114.058 337.743,115.371 338.462,116.333 339.018 C 117.296 339.574,118.196 340.067,118.333 340.114 C 118.471 340.161,119.933 340.860,121.583 341.668 C 126.739 344.193,128.550 345.031,129.583 345.371 C 130.133 345.551,130.658 345.758,130.750 345.829 C 131.019 346.040,134.822 347.614,136.347 348.146 C 137.119 348.416,138.852 349.054,140.200 349.566 C 141.547 350.077,142.972 350.569,143.366 350.660 C 143.761 350.751,145.540 351.314,147.320 351.912 C 149.100 352.509,151.088 353.108,151.737 353.242 C 152.386 353.376,153.592 353.682,154.417 353.922 C 156.930 354.652,161.734 355.820,162.943 355.996 C 163.570 356.087,165.208 356.390,166.583 356.670 C 171.777 357.727,176.581 358.437,181.167 358.826 C 182.313 358.923,184.525 359.112,186.083 359.246 C 190.089 359.591,195.798 359.830,200.083 359.831 C 205.645 359.832,209.942 359.602,218.833 358.830 C 223.589 358.416,227.449 357.847,233.417 356.679 C 235.250 356.321,237.088 355.981,237.500 355.925 C 238.208 355.828,244.177 354.339,246.167 353.762 C 246.671 353.616,247.608 353.386,248.250 353.250 C 248.892 353.114,250.917 352.506,252.750 351.900 C 254.583 351.294,256.458 350.699,256.917 350.578 C 257.375 350.457,258.762 349.970,260.000 349.497 C 261.237 349.024,263.000 348.374,263.917 348.053 C 265.478 347.507,266.866 346.931,269.250 345.840 C 269.800 345.588,270.451 345.334,270.697 345.274 C 270.943 345.215,272.293 344.613,273.697 343.938 C 275.101 343.262,276.408 342.661,276.601 342.601 C 276.794 342.542,277.936 341.969,279.138 341.330 C 280.341 340.690,281.420 340.161,281.537 340.155 C 281.654 340.148,282.575 339.662,283.583 339.074 C 284.592 338.487,285.942 337.742,286.583 337.419 C 287.225 337.096,288.425 336.419,289.250 335.914 C 290.075 335.409,290.928 334.920,291.145 334.828 C 291.362 334.736,292.389 334.099,293.427 333.413 C 294.465 332.728,295.360 332.167,295.414 332.167 C 295.542 332.167,298.519 330.168,298.786 329.903 C 298.897 329.792,299.316 329.544,299.715 329.350 C 300.115 329.157,300.736 328.749,301.096 328.443 C 301.456 328.138,302.162 327.614,302.667 327.279 C 303.729 326.573,306.292 324.681,306.600 324.375 C 306.715 324.260,306.858 324.167,306.917 324.167 C 307.070 324.167,309.012 322.676,309.434 322.234 C 309.628 322.033,310.090 321.675,310.463 321.440 C 310.835 321.205,311.614 320.587,312.195 320.066 C 312.775 319.545,313.443 318.999,313.678 318.851 C 313.913 318.704,314.663 318.085,315.344 317.476 C 316.026 316.866,317.669 315.404,318.997 314.226 C 323.088 310.594,327.327 306.361,332.324 300.917 C 332.744 300.458,333.567 299.521,334.151 298.833 C 334.736 298.146,335.282 297.557,335.365 297.525 C 335.449 297.493,335.692 297.190,335.905 296.851 C 336.119 296.513,336.784 295.702,337.384 295.048 C 337.983 294.395,338.567 293.686,338.681 293.472 C 338.795 293.258,339.252 292.670,339.696 292.165 C 340.140 291.660,340.784 290.858,341.127 290.383 C 342.212 288.880,344.348 285.971,345.509 284.417 C 346.126 283.592,346.675 282.765,346.731 282.580 C 346.786 282.394,347.052 282.002,347.321 281.707 C 347.590 281.412,348.239 280.477,348.764 279.627 C 349.289 278.778,350.231 277.306,350.859 276.357 C 351.487 275.407,352.000 274.551,352.000 274.456 C 352.000 274.360,352.174 274.049,352.386 273.766 C 352.918 273.055,354.667 270.090,354.667 269.898 C 354.667 269.813,354.940 269.332,355.274 268.830 C 356.440 267.076,362.667 254.701,362.667 254.138 C 362.667 254.028,362.997 253.221,363.400 252.344 C 364.751 249.409,365.333 248.043,365.334 247.812 C 365.334 247.686,365.737 246.608,366.228 245.417 C 366.720 244.225,367.332 242.612,367.588 241.833 C 367.844 241.054,368.453 239.254,368.942 237.833 C 370.005 234.741,370.474 233.230,370.749 232.000 C 370.862 231.496,371.222 230.183,371.548 229.083 C 372.512 225.830,373.019 223.863,373.331 222.174 C 373.493 221.299,373.901 219.308,374.239 217.750 C 375.050 214.011,375.593 211.091,375.820 209.250 C 375.922 208.425,376.154 206.588,376.335 205.167 C 378.520 188.060,378.335 172.200,375.740 154.250 C 375.455 152.279,374.408 146.849,373.764 144.000 C 373.546 143.037,373.275 141.725,373.161 141.083 C 373.048 140.442,372.469 138.229,371.875 136.167 C 371.281 134.104,370.759 132.192,370.715 131.917 C 370.615 131.291,369.893 128.974,368.819 125.833 C 368.364 124.504,367.875 123.042,367.732 122.583 C 367.588 122.125,366.990 120.539,366.402 119.060 C 365.814 117.580,365.333 116.292,365.333 116.197 C 365.333 116.011,363.700 112.189,363.504 111.917 C 363.438 111.825,363.100 111.037,362.753 110.167 C 361.896 108.017,356.851 97.870,355.643 95.866 C 355.107 94.977,354.668 94.191,354.668 94.119 C 354.667 94.047,354.160 93.163,353.542 92.154 C 352.923 91.146,352.229 89.967,352.000 89.535 C 351.591 88.764,350.206 86.609,348.354 83.859 C 347.838 83.094,347.117 82.006,346.750 81.440 C 346.383 80.874,345.618 79.774,345.050 78.997 C 344.482 78.219,343.510 76.890,342.890 76.042 C 342.271 75.194,341.710 74.500,341.643 74.500 C 341.577 74.500,341.478 74.361,341.425 74.191 C 341.312 73.837,340.202 72.394,339.290 71.417 C 338.948 71.050,338.668 70.673,338.667 70.580 C 338.667 70.486,338.321 70.036,337.899 69.580 C 337.477 69.123,336.858 68.412,336.524 68.000 C 331.539 61.840,322.161 52.328,315.998 47.180 C 315.403 46.683,314.836 46.180,314.737 46.063 C 314.639 45.945,314.114 45.516,313.571 45.108 C 313.028 44.700,312.283 44.088,311.917 43.748 C 311.550 43.409,310.960 42.945,310.606 42.718 C 310.252 42.491,309.652 42.026,309.273 41.686 C 308.420 40.919,307.236 40.000,307.102 40.000 C 307.047 40.000,306.533 39.621,305.959 39.158 C 305.386 38.695,304.245 37.855,303.424 37.292 C 302.603 36.729,301.455 35.908,300.873 35.467 C 300.292 35.027,299.726 34.665,299.616 34.663 C 299.506 34.661,299.229 34.506,299.000 34.318 C 298.112 33.592,291.953 29.620,291.167 29.267 C 290.846 29.123,289.758 28.482,288.750 27.843 C 287.742 27.204,286.831 26.678,286.726 26.674 C 286.622 26.670,285.867 26.273,285.048 25.792 C 282.359 24.210,272.660 19.488,270.432 18.675 C 269.965 18.504,268.721 17.980,267.667 17.509 C 266.612 17.038,265.188 16.460,264.500 16.223 C 263.813 15.986,262.612 15.545,261.833 15.242 C 259.351 14.278,257.209 13.500,257.038 13.500 C 256.946 13.500,255.174 12.941,253.099 12.257 C 251.023 11.573,249.046 10.964,248.704 10.903 C 248.363 10.842,247.408 10.607,246.583 10.381 C 243.447 9.521,238.720 8.339,238.000 8.236 C 237.588 8.176,235.412 7.766,233.167 7.324 C 228.089 6.325,224.011 5.687,221.446 5.491 C 220.363 5.408,218.863 5.266,218.113 5.175 C 211.508 4.378,201.502 4.040,193.500 4.342 M214.167 8.252 C 218.236 8.609,223.309 9.260,227.333 9.942 C 229.213 10.261,231.275 10.586,231.917 10.666 C 234.094 10.936,244.721 13.418,247.667 14.344 C 249.759 15.002,252.983 15.986,253.917 16.251 C 254.467 16.408,256.200 17.015,257.769 17.601 C 259.338 18.187,260.767 18.667,260.944 18.667 C 261.121 18.667,261.338 18.732,261.425 18.813 C 261.512 18.893,262.033 19.124,262.583 19.325 C 263.133 19.527,263.808 19.796,264.083 19.923 C 265.127 20.405,267.413 21.333,267.555 21.333 C 267.789 21.333,272.978 23.715,275.925 25.175 C 277.397 25.904,278.673 26.500,278.761 26.500 C 278.850 26.500,279.446 26.808,280.086 27.184 C 280.726 27.560,282.188 28.353,283.333 28.946 C 284.479 29.539,285.529 30.119,285.667 30.234 C 285.924 30.449,286.669 30.882,288.417 31.830 C 288.967 32.129,289.958 32.736,290.619 33.179 C 291.281 33.623,292.068 34.111,292.369 34.263 C 292.670 34.416,293.798 35.132,294.875 35.854 C 295.952 36.576,296.868 37.167,296.909 37.167 C 296.950 37.167,297.481 37.523,298.087 37.958 C 298.694 38.394,299.541 38.991,299.970 39.285 C 302.642 41.119,307.180 44.539,309.050 46.128 C 309.618 46.612,310.417 47.249,310.826 47.545 C 311.234 47.841,311.987 48.476,312.499 48.957 C 313.012 49.437,313.658 50.000,313.936 50.207 C 316.093 51.815,323.099 58.555,327.140 62.909 C 328.667 64.555,330.160 66.152,330.458 66.457 C 330.756 66.762,331.001 67.065,331.002 67.131 C 331.003 67.196,331.565 67.840,332.252 68.561 C 332.938 69.282,333.500 69.929,333.500 69.998 C 333.500 70.067,334.098 70.790,334.830 71.604 C 335.561 72.417,336.161 73.158,336.163 73.250 C 336.165 73.342,336.440 73.717,336.773 74.083 C 337.467 74.847,341.102 79.634,341.544 80.367 C 341.706 80.635,342.156 81.272,342.544 81.783 C 343.930 83.606,344.153 83.918,344.160 84.043 C 344.164 84.112,344.767 85.035,345.500 86.094 C 346.233 87.152,346.835 88.070,346.837 88.134 C 346.840 88.237,347.101 88.646,348.558 90.833 C 348.772 91.154,349.154 91.792,349.407 92.250 C 350.065 93.443,350.961 94.948,351.608 95.945 C 351.915 96.419,352.167 96.862,352.167 96.931 C 352.167 96.999,352.591 97.811,353.110 98.736 C 354.281 100.821,357.500 107.114,357.500 107.316 C 357.500 107.399,358.100 108.700,358.833 110.209 C 359.567 111.718,360.167 113.022,360.167 113.106 C 360.167 113.270,361.028 115.354,361.733 116.896 C 361.969 117.410,362.456 118.675,362.818 119.707 C 363.179 120.739,363.809 122.448,364.217 123.505 C 364.626 124.562,365.093 125.874,365.255 126.422 C 365.417 126.969,366.053 128.992,366.668 130.917 C 367.282 132.842,367.881 134.829,367.999 135.333 C 368.116 135.837,368.534 137.487,368.928 139.000 C 369.825 142.445,370.423 144.959,370.654 146.250 C 370.752 146.800,371.056 148.450,371.329 149.917 C 374.164 165.122,374.922 179.421,373.753 195.667 C 373.255 202.582,372.933 205.114,371.565 212.833 C 370.549 218.562,370.462 218.968,369.235 223.719 C 368.647 225.993,368.167 227.966,368.167 228.104 C 368.167 228.381,368.098 228.611,366.552 233.500 C 365.958 235.379,365.057 238.079,364.549 239.500 C 364.041 240.921,363.347 242.872,363.007 243.835 C 362.667 244.799,361.952 246.599,361.418 247.835 C 360.884 249.072,360.282 250.533,360.080 251.083 C 359.878 251.633,359.258 253.001,358.703 254.123 C 358.148 255.244,357.603 256.438,357.492 256.775 C 357.381 257.111,356.737 258.417,356.062 259.675 C 355.386 260.933,354.833 262.047,354.833 262.151 C 354.833 262.255,354.657 262.620,354.441 262.962 C 353.743 264.067,352.167 266.934,352.167 267.098 C 352.167 267.186,351.911 267.646,351.599 268.120 C 351.287 268.594,350.525 269.867,349.906 270.949 C 349.287 272.031,348.464 273.367,348.076 273.917 C 347.688 274.467,347.156 275.306,346.894 275.783 C 346.631 276.259,345.606 277.834,344.616 279.283 C 343.626 280.731,342.484 282.404,342.078 283.000 C 341.672 283.596,341.224 284.233,341.081 284.417 C 340.939 284.600,340.028 285.800,339.058 287.083 C 337.289 289.423,337.101 289.660,335.413 291.667 C 334.912 292.262,334.257 293.077,333.959 293.478 C 333.661 293.878,332.929 294.750,332.333 295.416 C 331.737 296.082,330.575 297.391,329.750 298.324 C 325.726 302.879,317.329 311.091,313.417 314.299 C 312.867 314.750,312.267 315.290,312.083 315.498 C 311.900 315.706,311.475 316.051,311.139 316.265 C 310.802 316.479,310.052 317.079,309.472 317.599 C 308.892 318.118,308.154 318.712,307.833 318.919 C 307.512 319.125,307.025 319.496,306.750 319.742 C 306.475 319.987,305.313 320.871,304.167 321.704 C 303.021 322.538,301.843 323.428,301.548 323.682 C 301.254 323.937,300.756 324.267,300.441 324.416 C 300.126 324.566,299.579 324.932,299.226 325.231 C 298.472 325.868,292.737 329.667,292.530 329.667 C 292.452 329.667,291.945 329.978,291.403 330.358 C 290.860 330.738,289.367 331.648,288.083 332.379 C 286.800 333.111,285.637 333.802,285.500 333.916 C 284.929 334.387,274.574 339.636,272.083 340.716 C 271.350 341.033,270.188 341.557,269.500 341.879 C 268.813 342.201,267.462 342.767,266.500 343.137 C 265.537 343.507,263.925 344.160,262.917 344.587 C 261.908 345.015,260.821 345.425,260.500 345.497 C 260.179 345.570,259.092 345.943,258.083 346.328 C 255.256 347.406,253.043 348.167,252.733 348.167 C 252.579 348.167,251.282 348.537,249.851 348.991 C 245.663 350.317,244.470 350.662,243.499 350.824 C 242.995 350.909,241.383 351.279,239.917 351.649 C 236.459 352.519,231.880 353.500,231.275 353.500 C 231.014 353.500,229.776 353.683,228.525 353.907 C 224.374 354.649,219.692 355.264,213.583 355.869 C 209.958 356.228,189.233 356.167,185.500 355.786 C 175.866 354.804,166.950 353.361,160.417 351.725 C 158.767 351.313,157.005 350.906,156.501 350.823 C 155.558 350.666,154.623 350.396,150.142 348.987 C 148.707 348.536,147.395 348.166,147.225 348.166 C 147.055 348.166,145.379 347.596,143.500 346.899 C 141.621 346.203,139.821 345.573,139.500 345.499 C 139.179 345.426,138.092 345.015,137.083 344.587 C 136.075 344.160,134.470 343.509,133.516 343.141 C 132.562 342.773,131.250 342.225,130.599 341.922 C 129.949 341.620,128.914 341.138,128.299 340.853 C 127.684 340.567,127.121 340.333,127.049 340.333 C 126.847 340.333,118.182 335.953,117.378 335.445 C 116.991 335.200,116.605 335.000,116.521 335.000 C 116.437 335.000,115.955 334.756,115.448 334.458 C 114.942 334.160,113.565 333.364,112.389 332.688 C 111.213 332.012,109.706 331.091,109.041 330.642 C 108.376 330.192,107.661 329.760,107.453 329.680 C 107.245 329.601,106.326 329.022,105.412 328.393 C 104.498 327.764,103.321 326.991,102.796 326.675 C 102.272 326.360,101.634 325.921,101.380 325.700 C 100.732 325.138,99.552 324.333,99.376 324.333 C 99.296 324.333,99.071 324.186,98.877 324.005 C 98.684 323.825,97.451 322.886,96.138 321.919 C 93.603 320.052,92.673 319.336,91.111 318.050 C 90.576 317.610,89.839 317.025,89.473 316.750 C 89.106 316.475,88.194 315.697,87.445 315.021 C 86.696 314.345,85.915 313.715,85.708 313.619 C 85.502 313.524,85.333 313.390,85.333 313.321 C 85.333 313.252,84.527 312.489,83.542 311.625 C 80.675 309.111,75.358 303.851,72.127 300.333 C 67.273 295.048,66.667 294.370,66.667 294.221 C 66.667 294.143,66.198 293.559,65.625 292.925 C 64.501 291.679,64.019 291.072,61.119 287.250 C 60.076 285.875,59.098 284.647,58.945 284.521 C 58.792 284.395,58.667 284.204,58.667 284.096 C 58.667 283.883,57.839 282.672,57.234 282.000 C 57.027 281.771,56.571 281.129,56.221 280.573 C 55.870 280.017,55.133 278.904,54.583 278.099 C 54.033 277.295,53.480 276.437,53.353 276.193 C 53.227 275.949,52.571 274.914,51.895 273.892 C 51.219 272.870,50.667 271.981,50.667 271.915 C 50.667 271.793,49.566 269.955,48.556 268.388 C 48.250 267.915,48.000 267.448,48.000 267.352 C 48.000 267.256,47.635 266.556,47.188 265.797 C 46.742 265.038,45.645 262.992,44.750 261.250 C 43.856 259.508,43.021 257.935,42.895 257.755 C 42.770 257.574,42.667 257.309,42.667 257.166 C 42.667 257.024,42.111 255.778,41.432 254.398 C 40.753 253.018,40.123 251.632,40.032 251.319 C 39.941 251.006,39.417 249.731,38.866 248.485 C 38.316 247.240,37.564 245.365,37.194 244.318 C 36.825 243.272,36.215 241.629,35.837 240.667 C 35.460 239.704,34.965 238.281,34.737 237.505 C 34.509 236.728,33.877 234.741,33.331 233.088 C 32.786 231.435,32.193 229.446,32.013 228.667 C 31.834 227.887,31.242 225.563,30.698 223.500 C 30.155 221.438,29.616 219.188,29.503 218.500 C 29.389 217.813,29.081 216.152,28.818 214.809 C 27.680 208.982,26.875 203.652,26.660 200.500 C 26.575 199.262,26.394 196.938,26.258 195.333 C 25.013 180.624,25.899 164.304,28.737 149.667 C 29.048 148.063,29.350 146.418,29.408 146.012 C 29.548 145.030,30.353 141.699,31.243 138.417 C 31.641 136.950,32.017 135.455,32.079 135.095 C 32.142 134.735,32.749 132.739,33.430 130.659 C 34.110 128.580,34.669 126.774,34.672 126.647 C 34.676 126.520,35.093 125.329,35.599 124.000 C 36.106 122.671,36.841 120.683,37.232 119.583 C 37.623 118.483,38.181 117.072,38.472 116.447 C 38.762 115.822,39.000 115.280,39.000 115.243 C 39.000 115.205,39.225 114.684,39.500 114.083 C 39.775 113.483,40.000 112.900,40.000 112.787 C 40.001 112.675,40.601 111.359,41.334 109.862 C 42.067 108.366,42.667 107.080,42.667 107.006 C 42.667 106.802,43.959 104.212,44.581 103.167 C 44.882 102.662,45.184 102.063,45.253 101.833 C 45.322 101.604,45.949 100.401,46.647 99.160 C 47.345 97.920,48.067 96.624,48.250 96.282 C 48.669 95.499,50.740 91.977,51.317 91.066 C 51.555 90.689,52.050 89.907,52.417 89.328 C 53.550 87.537,56.125 83.617,56.616 82.935 C 56.873 82.579,57.464 81.751,57.929 81.094 C 59.392 79.028,62.601 74.770,63.071 74.272 C 63.318 74.009,63.693 73.521,63.904 73.188 C 64.114 72.856,64.747 72.076,65.310 71.455 C 65.873 70.834,66.522 70.028,66.752 69.663 C 66.982 69.298,67.228 69.000,67.298 69.000 C 67.369 69.000,67.836 68.510,68.338 67.911 C 69.460 66.571,69.454 66.578,72.856 62.908 C 76.960 58.480,83.252 52.473,86.888 49.510 C 87.499 49.012,88.000 48.554,88.000 48.492 C 88.000 48.431,88.394 48.115,88.875 47.790 C 89.356 47.465,90.125 46.846,90.583 46.414 C 91.042 45.982,91.679 45.461,92.000 45.255 C 92.321 45.050,92.989 44.535,93.486 44.111 C 93.982 43.687,94.693 43.133,95.065 42.879 C 95.438 42.625,96.513 41.838,97.455 41.131 C 98.396 40.424,99.335 39.755,99.542 39.646 C 99.748 39.537,100.593 38.953,101.420 38.348 C 102.247 37.744,103.125 37.137,103.371 37.000 C 103.617 36.862,104.553 36.254,105.451 35.648 C 106.349 35.041,107.346 34.411,107.667 34.247 C 107.987 34.084,108.775 33.595,109.417 33.162 C 110.058 32.728,111.108 32.090,111.750 31.742 C 112.392 31.395,113.404 30.812,114.000 30.446 C 114.596 30.080,115.908 29.351,116.917 28.825 C 117.925 28.300,119.274 27.561,119.914 27.185 C 120.554 26.808,121.154 26.501,121.247 26.501 C 121.340 26.502,122.617 25.905,124.083 25.175 C 126.951 23.747,132.203 21.333,132.442 21.333 C 132.522 21.333,133.487 20.954,134.586 20.490 C 135.684 20.027,136.996 19.493,137.500 19.303 C 138.004 19.114,138.488 18.893,138.575 18.813 C 138.662 18.732,138.899 18.667,139.102 18.667 C 139.305 18.667,140.322 18.334,141.361 17.928 C 143.647 17.035,145.682 16.372,152.333 14.356 C 155.309 13.454,155.746 13.333,156.032 13.333 C 156.203 13.333,157.821 12.962,159.629 12.507 C 163.755 11.471,166.582 10.856,168.083 10.669 C 168.725 10.589,170.825 10.258,172.750 9.934 C 179.404 8.814,185.110 8.188,190.417 7.995 C 196.063 7.791,210.708 7.949,214.167 8.252 M195.500 44.113 C 193.996 44.268,191.099 44.718,189.667 45.018 C 186.465 45.689,185.704 45.898,183.500 46.710 C 182.262 47.166,180.800 47.705,180.250 47.907 C 177.411 48.952,170.348 53.090,168.422 54.836 C 168.052 55.171,167.337 55.754,166.833 56.132 C 165.235 57.329,160.167 62.484,160.167 62.913 C 160.167 63.012,159.960 63.318,159.708 63.594 C 158.538 64.877,155.329 69.782,154.918 70.917 C 154.819 71.192,154.272 72.354,153.702 73.500 C 150.021 80.908,148.500 89.882,149.802 96.500 C 150.555 100.325,151.345 103.979,151.676 105.167 C 151.867 105.854,152.089 106.721,152.168 107.094 C 152.352 107.960,153.490 110.953,154.128 112.250 C 154.399 112.800,154.678 113.438,154.749 113.667 C 154.918 114.218,155.981 116.349,156.244 116.667 C 156.359 116.804,156.884 117.742,157.412 118.750 C 157.940 119.758,158.775 121.198,159.269 121.950 C 159.763 122.701,160.167 123.385,160.167 123.469 C 160.167 123.553,160.751 124.514,161.465 125.603 C 162.180 126.692,162.960 127.921,163.200 128.333 C 163.439 128.746,164.025 129.608,164.502 130.250 C 164.978 130.892,165.428 131.571,165.501 131.759 C 165.574 131.948,165.815 132.323,166.037 132.593 C 166.259 132.863,167.140 134.096,167.996 135.333 C 168.852 136.571,169.795 137.857,170.093 138.191 C 170.391 138.525,170.755 139.050,170.901 139.358 C 171.048 139.665,171.377 140.142,171.633 140.417 C 171.888 140.692,172.576 141.554,173.160 142.333 C 176.150 146.324,177.909 148.609,178.164 148.833 C 178.320 148.971,178.688 149.449,178.982 149.895 C 179.276 150.342,179.886 151.130,180.339 151.645 C 180.791 152.161,181.369 152.895,181.622 153.277 C 181.876 153.658,182.571 154.571,183.167 155.304 C 185.363 158.009,186.596 159.570,187.083 160.264 C 187.358 160.656,187.846 161.263,188.167 161.613 C 188.487 161.963,189.088 162.711,189.500 163.275 C 189.912 163.838,190.625 164.747,191.083 165.295 C 191.542 165.843,192.517 167.065,193.250 168.011 C 193.983 168.957,195.183 170.479,195.917 171.393 C 196.650 172.307,197.475 173.372,197.750 173.759 C 198.025 174.147,198.617 174.881,199.065 175.392 C 199.513 175.903,200.028 176.567,200.210 176.869 C 200.392 177.170,200.813 177.717,201.145 178.083 C 201.478 178.450,202.411 179.626,203.219 180.696 C 204.028 181.766,204.871 182.839,205.094 183.080 C 205.317 183.320,205.500 183.559,205.500 183.610 C 205.500 183.738,206.418 184.908,207.369 185.992 C 207.808 186.491,208.167 186.979,208.167 187.075 C 208.168 187.171,208.622 187.775,209.178 188.417 C 209.733 189.058,210.427 189.930,210.719 190.354 C 211.641 191.692,213.863 194.500,214.001 194.500 C 214.201 194.500,215.141 193.380,215.786 192.372 C 216.102 191.877,216.490 191.343,216.648 191.186 C 216.805 191.028,217.636 189.929,218.495 188.742 C 219.354 187.555,220.343 186.254,220.695 185.852 C 221.046 185.449,221.333 185.047,221.333 184.959 C 221.333 184.792,222.106 183.770,222.842 182.963 C 223.077 182.707,223.452 182.189,223.676 181.812 C 223.900 181.435,224.316 180.854,224.600 180.522 C 225.342 179.653,228.442 175.490,229.382 174.099 C 229.822 173.449,230.276 172.842,230.391 172.750 C 230.724 172.486,232.000 170.738,232.000 170.547 C 232.000 170.452,232.126 170.271,232.281 170.145 C 232.435 170.020,233.229 169.017,234.045 167.917 C 234.861 166.817,235.615 165.917,235.722 165.917 C 235.869 165.917,235.942 171.150,236.020 187.167 C 236.132 210.418,236.255 213.813,237.179 219.167 C 237.688 222.116,238.539 224.421,239.725 226.063 C 239.931 226.349,240.204 226.792,240.331 227.046 C 240.671 227.730,243.621 230.712,244.583 231.346 C 245.042 231.648,245.457 231.953,245.506 232.025 C 245.657 232.245,248.403 233.833,248.632 233.833 C 248.750 233.833,249.125 233.974,249.465 234.145 C 249.805 234.317,250.252 234.509,250.458 234.573 L 250.833 234.689 250.833 178.446 C 250.833 117.709,250.885 121.501,250.064 122.183 C 249.783 122.416,248.167 124.585,248.167 124.729 C 248.167 124.786,248.028 124.972,247.859 125.141 C 247.559 125.441,244.415 129.555,242.750 131.825 C 242.292 132.450,241.555 133.402,241.113 133.939 C 240.671 134.477,240.264 135.029,240.210 135.167 C 240.156 135.304,239.880 135.681,239.597 136.005 C 239.315 136.328,238.708 137.104,238.250 137.729 C 237.792 138.355,236.835 139.602,236.125 140.502 C 235.415 141.401,234.832 142.200,234.831 142.277 C 234.830 142.354,234.409 142.904,233.896 143.500 C 233.383 144.096,232.728 144.929,232.440 145.351 C 231.799 146.291,227.854 151.496,227.544 151.810 C 227.420 151.935,227.067 152.423,226.759 152.894 C 226.451 153.365,225.902 154.076,225.539 154.474 C 225.177 154.873,224.701 155.498,224.482 155.864 C 224.263 156.230,223.906 156.729,223.689 156.973 C 223.297 157.414,220.173 161.510,218.583 163.668 C 218.125 164.290,217.394 165.238,216.958 165.774 C 216.523 166.311,216.167 166.832,216.167 166.933 C 216.167 167.033,216.008 167.258,215.813 167.433 C 215.619 167.607,215.118 168.192,214.701 168.733 L 213.942 169.716 213.535 169.233 C 213.312 168.967,212.770 168.337,212.332 167.833 C 211.409 166.773,210.838 166.065,210.494 165.558 C 209.960 164.772,206.132 159.813,205.848 159.541 C 205.682 159.381,205.449 159.063,205.332 158.833 C 205.214 158.604,204.647 157.854,204.071 157.167 C 203.496 156.479,202.776 155.563,202.471 155.130 C 202.166 154.698,200.979 153.138,199.833 151.663 C 198.688 150.189,197.484 148.614,197.159 148.164 C 196.833 147.714,196.221 146.949,195.799 146.464 C 195.376 145.980,194.780 145.231,194.474 144.801 C 193.843 143.915,187.368 135.840,187.083 135.583 C 186.981 135.492,186.692 135.094,186.441 134.700 C 186.190 134.306,185.731 133.703,185.421 133.360 C 185.111 133.017,184.571 132.321,184.221 131.813 C 183.870 131.305,183.096 130.246,182.500 129.459 C 181.904 128.672,180.940 127.346,180.358 126.513 C 179.776 125.680,179.231 124.956,179.147 124.905 C 179.064 124.853,178.854 124.535,178.681 124.197 C 178.509 123.859,177.901 122.955,177.330 122.188 C 176.759 121.420,176.205 120.633,176.099 120.438 C 175.708 119.721,174.271 117.567,173.809 117.004 C 173.548 116.685,173.333 116.336,173.333 116.229 C 173.333 116.122,172.873 115.341,172.311 114.493 C 169.562 110.349,166.497 103.414,165.607 99.323 C 164.822 95.721,164.373 90.809,164.638 88.739 C 164.732 88.012,164.933 86.367,165.086 85.083 C 165.536 81.306,166.278 79.033,168.295 75.250 C 169.941 72.165,177.810 63.833,179.078 63.833 C 179.137 63.833,179.799 63.430,180.550 62.938 C 182.202 61.855,182.641 61.631,185.417 60.457 C 192.546 57.440,199.473 56.659,206.583 58.070 C 207.683 58.288,208.883 58.518,209.250 58.581 C 211.103 58.900,216.887 61.344,219.106 62.745 C 220.054 63.343,220.869 63.833,220.917 63.833 C 221.062 63.833,224.003 66.155,225.229 67.238 C 226.612 68.459,229.136 71.315,230.248 72.917 C 230.694 73.558,231.190 74.233,231.351 74.417 C 232.499 75.722,234.513 80.447,235.072 83.145 C 235.801 86.663,235.846 87.113,235.996 92.333 C 236.295 102.794,237.588 106.301,242.012 108.660 C 245.196 110.357,250.253 111.172,250.677 110.056 C 250.983 109.250,250.562 89.578,250.153 85.583 C 249.562 79.817,245.588 70.461,241.417 65.016 C 241.050 64.537,240.502 63.794,240.198 63.364 C 239.106 61.818,233.513 56.014,233.106 56.004 C 233.026 56.002,232.535 55.606,232.015 55.125 C 230.951 54.141,226.940 51.370,225.417 50.566 C 224.867 50.276,223.629 49.619,222.667 49.106 C 221.704 48.593,220.625 48.091,220.270 47.991 C 219.914 47.891,219.204 47.617,218.694 47.384 C 217.448 46.814,213.531 45.533,212.635 45.402 C 212.240 45.345,211.017 45.122,209.917 44.907 C 205.905 44.123,199.061 43.747,195.500 44.113 M149.169 178.292 C 149.171 223.573,149.213 234.497,149.385 234.833 C 149.819 235.680,151.772 235.377,155.643 233.864 C 157.997 232.945,161.444 229.683,162.398 227.473 C 164.180 223.346,164.030 226.262,164.118 194.083 C 164.161 178.683,164.252 166.024,164.322 165.951 C 164.391 165.878,164.929 166.434,165.516 167.185 C 166.103 167.937,166.883 168.926,167.250 169.383 C 167.617 169.840,168.067 170.463,168.250 170.766 C 168.433 171.070,169.033 171.857,169.583 172.516 C 170.133 173.174,170.733 173.956,170.917 174.254 C 171.100 174.552,171.700 175.359,172.250 176.047 C 172.800 176.735,173.925 178.175,174.750 179.248 C 175.575 180.320,176.700 181.758,177.250 182.443 C 177.800 183.129,178.484 184.025,178.770 184.435 C 179.056 184.844,179.468 185.384,179.687 185.633 C 180.266 186.296,181.390 187.709,181.583 188.018 C 181.675 188.165,182.250 188.915,182.861 189.684 C 185.414 192.897,186.446 194.228,186.957 194.964 C 187.255 195.392,187.810 196.082,188.191 196.496 C 188.572 196.911,189.134 197.639,189.440 198.114 C 189.746 198.589,190.078 199.029,190.179 199.091 C 190.279 199.153,190.871 199.889,191.494 200.727 C 192.116 201.565,193.141 202.905,193.771 203.707 C 194.401 204.508,195.179 205.518,195.500 205.951 C 195.821 206.385,196.233 206.887,196.417 207.069 C 196.600 207.250,197.088 207.863,197.500 208.430 C 198.149 209.323,199.272 210.777,200.708 212.583 C 200.927 212.858,201.844 214.058,202.746 215.250 C 203.648 216.442,204.637 217.673,204.943 217.986 C 205.250 218.299,205.500 218.625,205.500 218.710 C 205.500 218.882,205.854 219.352,206.840 220.489 C 207.206 220.911,207.786 221.645,208.128 222.119 C 209.229 223.645,212.702 228.071,213.107 228.465 C 213.323 228.675,213.500 228.906,213.500 228.978 C 213.500 229.137,214.922 230.984,215.239 231.236 C 215.364 231.335,215.799 231.910,216.206 232.513 C 216.613 233.116,217.158 233.847,217.417 234.138 L 217.888 234.667 226.611 234.667 C 231.408 234.667,235.333 234.603,235.333 234.526 C 235.333 234.448,235.183 234.211,235.000 234.000 C 234.817 233.789,234.667 233.548,234.667 233.465 C 234.667 233.383,234.348 232.860,233.958 232.304 C 233.569 231.748,232.598 230.346,231.802 229.188 C 226.820 221.948,222.646 216.017,222.011 215.275 C 221.764 214.986,221.367 214.412,221.129 214.000 C 220.890 213.588,220.557 213.100,220.388 212.917 C 220.219 212.733,219.744 212.116,219.332 211.544 C 216.662 207.839,215.823 206.690,215.083 205.725 C 214.625 205.127,213.912 204.169,213.500 203.597 C 212.336 201.982,208.930 197.465,208.527 197.000 C 208.327 196.771,207.937 196.233,207.659 195.805 C 207.381 195.378,206.885 194.740,206.557 194.389 C 206.229 194.037,205.712 193.375,205.408 192.917 C 205.105 192.458,204.623 191.821,204.339 191.500 C 204.054 191.179,203.580 190.599,203.286 190.210 C 202.020 188.541,198.424 184.035,197.931 183.500 C 197.635 183.179,197.254 182.692,197.083 182.417 C 196.913 182.142,196.390 181.504,195.922 181.000 C 195.453 180.496,194.853 179.783,194.589 179.417 C 194.324 179.050,193.710 178.338,193.223 177.833 C 192.736 177.329,192.151 176.654,191.924 176.333 C 191.697 176.012,191.206 175.450,190.832 175.083 C 190.458 174.717,189.349 173.341,188.368 172.027 C 187.386 170.713,186.190 169.138,185.709 168.527 C 185.228 167.916,184.628 167.131,184.376 166.781 C 184.123 166.432,183.425 165.532,182.823 164.781 C 182.222 164.031,181.509 163.108,181.240 162.731 C 180.267 161.369,177.191 157.402,176.603 156.750 C 176.271 156.383,176.000 155.998,176.000 155.893 C 176.000 155.788,175.680 155.338,175.289 154.893 C 174.158 153.606,173.333 152.541,173.333 152.367 C 173.333 152.279,173.217 152.111,173.075 151.993 C 172.933 151.875,171.930 150.608,170.847 149.178 C 169.764 147.748,168.750 146.471,168.593 146.342 C 168.437 146.212,168.172 145.838,168.005 145.511 C 167.838 145.184,167.374 144.549,166.975 144.099 C 166.576 143.650,165.875 142.771,165.417 142.146 C 164.250 140.554,161.050 136.367,160.464 135.667 C 160.196 135.346,159.646 134.633,159.241 134.083 C 158.836 133.533,158.222 132.730,157.877 132.299 C 157.532 131.868,157.025 131.216,156.750 130.851 C 156.475 130.486,155.387 129.089,154.333 127.745 C 153.279 126.402,152.267 125.103,152.085 124.860 C 150.494 122.735,149.965 122.167,149.576 122.167 L 149.167 122.167 149.169 178.292 M94.468 241.241 C 92.912 241.835,92.129 242.940,92.117 244.560 C 92.101 246.714,92.858 247.626,95.883 249.096 C 98.344 250.292,98.895 250.950,98.327 252.011 C 97.804 252.989,94.901 253.105,92.622 252.239 C 92.276 252.107,91.957 252.000,91.913 252.000 C 91.525 252.000,91.874 254.467,92.292 254.674 C 92.909 254.980,97.492 255.105,98.378 254.840 C 99.816 254.409,100.990 252.798,100.995 251.250 C 101.002 249.199,100.220 248.244,97.642 247.156 C 95.129 246.096,94.246 245.098,94.838 243.991 C 95.289 243.149,97.033 242.925,98.667 243.500 C 100.019 243.976,100.074 243.957,100.471 242.878 C 100.665 242.353,100.769 241.873,100.703 241.811 C 99.998 241.153,95.723 240.762,94.468 241.241 M110.736 241.227 C 109.102 241.759,108.034 242.642,107.281 244.083 L 106.758 245.083 106.757 248.000 C 106.756 251.824,107.497 253.388,109.870 254.570 C 111.121 255.194,114.948 255.215,116.257 254.605 C 119.966 252.878,120.934 246.028,117.937 242.711 C 116.634 241.268,112.944 240.508,110.736 241.227 M129.917 241.224 C 126.487 242.362,124.817 245.885,125.660 250.208 C 126.323 253.611,128.184 254.996,132.083 254.987 C 135.527 254.979,135.735 254.897,135.800 253.525 L 135.850 252.467 134.967 252.561 C 130.340 253.058,129.227 252.639,128.430 250.105 C 127.009 245.581,130.210 241.962,134.199 243.583 C 135.499 244.112,135.427 244.126,135.727 243.292 C 136.260 241.808,136.270 241.861,135.387 241.465 C 134.379 241.013,131.002 240.864,129.917 241.224 M270.083 241.158 C 266.762 241.984,265.247 244.155,265.254 248.083 C 265.260 251.519,266.187 253.415,268.394 254.501 L 269.462 255.027 272.523 254.957 C 274.260 254.918,275.854 254.801,276.208 254.686 L 276.833 254.484 276.833 250.909 L 276.833 247.333 274.167 247.333 L 271.500 247.333 271.500 248.417 L 271.500 249.500 272.917 249.500 L 274.333 249.500 274.333 251.063 L 274.333 252.625 273.813 252.729 C 270.236 253.444,268.053 251.916,267.869 248.568 C 267.642 244.467,270.670 242.153,274.500 243.500 C 275.776 243.949,275.788 243.945,276.252 242.896 C 276.794 241.671,276.843 241.768,275.458 241.357 C 274.207 240.986,271.220 240.876,270.083 241.158 M142.333 248.083 L 142.333 255.000 143.583 255.000 L 144.833 255.000 144.833 248.083 L 144.833 241.167 143.583 241.167 L 142.333 241.167 142.333 248.083 M155.086 241.770 C 154.947 242.102,154.833 242.467,154.833 242.582 C 154.833 242.696,154.273 244.184,153.588 245.889 C 152.903 247.593,152.293 249.197,152.232 249.452 C 152.171 249.708,151.719 250.942,151.227 252.195 C 150.063 255.162,150.038 255.000,151.654 255.000 L 152.974 255.000 153.174 254.375 C 153.284 254.031,153.600 253.169,153.877 252.458 L 154.380 251.167 156.766 251.167 L 159.151 251.167 159.503 251.958 C 159.697 252.394,159.956 253.125,160.079 253.583 C 160.478 255.072,160.388 255.000,161.851 255.000 C 162.575 255.000,163.167 254.941,163.167 254.868 C 163.167 254.522,162.081 251.454,161.096 249.019 C 160.493 247.528,160.000 246.209,160.000 246.088 C 160.000 245.885,158.997 243.236,158.373 241.792 L 158.103 241.167 156.720 241.167 L 155.338 241.167 155.086 241.770 M168.667 248.083 L 168.667 255.000 172.833 255.000 L 177.000 255.000 177.000 253.917 L 177.000 252.833 174.083 252.833 L 171.167 252.833 171.167 247.000 L 171.167 241.167 169.917 241.167 L 168.667 241.167 168.667 248.083 M192.167 248.083 L 192.167 255.000 193.344 255.000 L 194.521 255.000 194.469 249.749 C 194.425 245.296,194.449 244.605,194.629 245.207 C 195.050 246.617,196.056 249.587,196.167 249.750 C 196.229 249.842,196.565 250.779,196.912 251.833 C 197.259 252.887,197.631 254.012,197.737 254.333 L 197.931 254.917 199.083 254.917 L 200.235 254.917 201.291 252.167 C 201.872 250.654,202.454 249.042,202.583 248.583 C 202.713 248.125,203.066 247.086,203.368 246.275 L 203.917 244.800 203.961 249.900 L 204.005 255.000 205.252 255.000 L 206.500 255.000 206.500 248.083 L 206.500 241.167 204.667 241.167 C 203.092 241.167,202.833 241.205,202.833 241.435 C 202.833 241.694,202.565 242.439,200.924 246.734 C 200.508 247.825,200.163 248.837,200.158 248.984 C 200.153 249.130,199.942 249.761,199.689 250.386 L 199.229 251.522 198.308 248.969 C 197.801 247.565,197.098 245.554,196.746 244.500 C 196.393 243.446,195.965 242.265,195.795 241.875 L 195.484 241.167 193.826 241.167 L 192.167 241.167 192.167 248.083 M216.666 241.956 C 216.474 242.390,216.257 243.009,216.183 243.331 C 216.109 243.653,215.475 245.355,214.775 247.112 C 214.074 248.870,213.500 250.391,213.500 250.493 C 213.500 250.595,213.162 251.531,212.750 252.574 C 211.747 255.111,211.721 255.000,213.310 255.000 L 214.621 255.000 215.282 253.125 L 215.944 251.250 218.379 251.204 L 220.814 251.158 221.157 251.933 C 221.346 252.360,221.500 252.831,221.500 252.980 C 221.500 253.128,221.642 253.625,221.816 254.083 L 222.132 254.917 223.483 254.965 C 224.226 254.992,224.832 254.954,224.831 254.882 C 224.825 254.558,223.434 250.673,222.432 248.184 C 221.828 246.681,221.335 245.369,221.336 245.268 C 221.337 245.166,220.990 244.202,220.564 243.125 L 219.789 241.167 218.402 241.167 L 217.016 241.167 216.666 241.956 M230.167 248.083 L 230.167 255.000 231.344 255.000 L 232.522 255.000 232.469 249.820 C 232.434 246.312,232.470 244.732,232.583 244.925 C 232.675 245.081,233.219 245.914,233.792 246.775 C 234.365 247.636,234.833 248.405,234.833 248.484 C 234.833 248.564,235.123 249.068,235.477 249.606 C 236.645 251.379,237.388 252.573,237.795 253.329 C 238.711 255.029,238.665 255.000,240.428 255.000 L 242.000 255.000 242.000 248.083 L 242.000 241.167 240.836 241.167 L 239.672 241.167 239.627 246.188 L 239.583 251.209 238.807 250.063 C 238.380 249.432,237.563 248.129,236.991 247.167 C 236.419 246.204,235.662 245.011,235.309 244.515 C 234.956 244.018,234.667 243.537,234.667 243.444 C 234.667 243.351,234.352 242.801,233.968 242.221 L 233.270 241.167 231.718 241.167 L 230.167 241.167 230.167 248.083 M252.237 241.792 C 251.730 242.978,250.833 245.362,250.833 245.527 C 250.833 245.618,250.342 246.925,249.742 248.431 C 248.623 251.239,247.502 254.420,247.501 254.792 C 247.500 254.941,247.871 255.000,248.800 255.000 L 250.101 255.000 250.385 254.208 C 250.541 253.773,250.668 253.306,250.667 253.170 C 250.667 253.034,250.830 252.528,251.031 252.045 L 251.395 251.167 253.822 251.167 L 256.250 251.167 256.928 253.042 L 257.606 254.917 258.970 254.965 C 260.603 255.023,260.562 255.207,259.500 252.535 C 259.042 251.382,258.667 250.349,258.667 250.240 C 258.667 250.130,258.067 248.536,257.333 246.697 C 256.600 244.859,256.000 243.281,256.000 243.192 C 256.000 243.103,255.840 242.610,255.644 242.098 L 255.287 241.167 253.896 241.167 L 252.504 241.167 252.237 241.792 M283.667 248.083 L 283.667 255.000 287.667 255.000 L 291.667 255.000 291.667 253.917 L 291.667 252.833 288.917 252.833 L 286.167 252.833 286.167 250.833 L 286.167 248.833 288.750 248.833 L 291.333 248.833 291.333 247.833 L 291.333 246.833 288.750 246.833 L 286.167 246.833 286.167 245.000 L 286.167 243.167 288.917 243.167 L 291.667 243.167 291.667 242.167 L 291.667 241.167 287.667 241.167 L 283.667 241.167 283.667 248.083 M298.333 248.071 L 298.333 255.000 299.583 255.000 L 300.833 255.000 300.833 252.242 L 300.833 249.483 301.786 249.533 C 302.849 249.589,302.939 249.679,304.172 251.917 C 304.475 252.467,304.997 253.367,305.333 253.917 L 305.944 254.917 307.388 254.965 C 309.153 255.024,309.144 255.074,307.750 253.000 C 307.154 252.114,306.667 251.329,306.667 251.257 C 306.667 251.185,306.322 250.642,305.900 250.052 C 305.479 249.461,305.160 248.957,305.192 248.931 C 305.224 248.906,305.530 248.699,305.871 248.471 C 308.325 246.838,308.172 242.796,305.613 241.641 C 304.823 241.285,304.479 241.248,301.542 241.197 L 298.333 241.141 298.333 248.071 M114.564 243.326 C 117.046 244.270,117.861 249.053,115.989 251.683 C 114.874 253.248,111.350 253.231,110.184 251.655 C 109.021 250.081,108.988 245.716,110.129 244.447 C 111.088 243.382,113.264 242.832,114.564 243.326 M303.937 243.610 C 306.100 244.611,304.984 247.207,302.347 247.308 L 300.833 247.366 300.833 245.252 L 300.833 243.138 302.125 243.254 C 302.835 243.318,303.651 243.478,303.937 243.610 M218.827 245.123 C 218.831 245.328,219.133 246.294,219.500 247.270 C 219.867 248.247,220.167 249.073,220.167 249.106 C 220.167 249.139,219.374 249.167,218.405 249.167 C 216.363 249.167,216.479 249.477,217.501 246.739 C 217.845 245.816,218.182 244.809,218.250 244.501 L 218.373 243.940 218.597 244.345 C 218.721 244.568,218.824 244.918,218.827 245.123 M157.262 245.297 C 157.518 246.182,158.230 248.371,158.443 248.925 C 158.520 249.127,158.241 249.167,156.757 249.167 C 154.694 249.167,154.813 249.477,155.827 246.750 C 156.168 245.833,156.499 244.874,156.562 244.618 C 156.721 243.971,156.940 244.182,157.262 245.297 M254.237 245.125 C 254.401 245.652,254.790 246.747,255.101 247.558 C 255.412 248.370,255.667 249.063,255.667 249.100 C 255.667 249.137,254.871 249.167,253.899 249.167 C 252.556 249.167,252.149 249.117,252.206 248.958 C 252.627 247.783,253.377 245.438,253.511 244.875 C 253.736 243.931,253.881 243.981,254.237 245.125 M149.583 261.109 C 149.400 261.159,149.196 261.250,149.130 261.312 C 149.063 261.373,149.081 263.522,149.170 266.087 C 149.258 268.652,149.404 273.225,149.495 276.250 C 149.713 283.543,150.047 286.101,151.352 290.500 C 151.637 291.462,151.965 292.668,152.080 293.179 C 152.339 294.324,153.212 296.719,153.831 297.977 C 154.085 298.494,154.595 299.554,154.965 300.334 C 155.334 301.113,155.978 302.249,156.395 302.858 C 156.811 303.466,157.315 304.253,157.513 304.606 C 159.686 308.475,167.772 316.505,172.167 319.158 C 172.671 319.462,173.303 319.895,173.571 320.120 C 175.340 321.601,183.134 324.824,187.799 326.004 C 194.182 327.619,203.856 327.816,210.917 326.474 C 214.319 325.827,222.547 322.819,223.833 321.752 C 223.971 321.638,224.272 321.500,224.503 321.446 C 225.280 321.262,232.000 316.801,232.000 316.469 C 232.000 316.390,232.169 316.261,232.375 316.182 C 232.755 316.038,237.331 311.898,237.337 311.694 C 237.338 311.633,237.901 310.991,238.587 310.268 C 239.272 309.544,239.833 308.894,239.833 308.823 C 239.833 308.752,240.175 308.294,240.593 307.805 C 241.011 307.317,241.845 306.167,242.446 305.250 C 243.047 304.333,243.743 303.283,243.993 302.917 C 245.059 301.350,247.634 296.003,248.006 294.583 C 248.078 294.308,248.412 293.296,248.749 292.333 C 251.621 284.115,251.690 276.386,248.967 267.837 C 248.602 266.689,248.203 265.398,248.080 264.967 C 247.957 264.537,247.706 263.843,247.521 263.426 L 247.185 262.667 239.259 262.667 C 234.900 262.667,231.333 262.710,231.333 262.763 C 231.333 262.816,231.889 264.259,232.568 265.971 C 234.828 271.668,235.498 274.727,235.627 279.941 C 235.803 287.024,234.059 293.477,230.677 298.250 C 230.158 298.983,229.609 299.771,229.457 300.000 C 228.946 300.773,224.003 305.667,223.734 305.667 C 223.632 305.667,221.763 307.077,221.284 307.515 C 221.119 307.666,220.707 307.930,220.367 308.103 C 220.028 308.275,219.450 308.600,219.083 308.825 C 217.561 309.758,215.682 310.718,214.667 311.083 C 209.095 313.086,207.722 313.433,204.091 313.752 C 197.726 314.311,193.268 313.788,188.085 311.876 C 186.984 311.470,185.821 311.061,185.500 310.966 C 185.179 310.872,184.092 310.341,183.083 309.787 C 182.075 309.232,180.915 308.597,180.505 308.374 C 179.634 307.902,178.961 307.436,178.401 306.917 C 178.181 306.713,177.682 306.332,177.292 306.071 C 176.637 305.632,175.933 305.024,173.996 303.224 C 170.224 299.719,165.339 291.697,165.334 288.999 C 165.334 288.769,165.257 288.319,165.163 287.999 C 164.697 286.401,164.469 283.978,164.253 278.333 C 163.911 269.408,163.475 267.698,160.856 265.023 C 157.970 262.075,152.744 260.261,149.583 261.109 " stroke="none" fill="#1cacc4" fill-rule="evenodd"></path><path id="path1" d="" stroke="none" fill="#20acc4" fill-rule="evenodd"></path><path id="path2" d="" stroke="none" fill="#20acc4" fill-rule="evenodd"></path><path id="path3" d="" stroke="none" fill="#20acc4" fill-rule="evenodd"></path><path id="path4" d="" stroke="none" fill="#20acc4" fill-rule="evenodd"></path></g></svg>